<svg xmlns="http://www.w3.org/2000/svg" version="1.1" xmlns:xlink="http://www.w3.org/1999/xlink" xmlns:svgjs="http://svgjs.dev/svgjs" width="1440" height="560" preserveAspectRatio="none" viewBox="0 0 1440 560"><g mask="url(&quot;#SvgjsMask1179&quot;)" fill="none"><path d="M816.11 37.05 a114.84 114.84 0 1 0 229.68 0 a114.84 114.84 0 1 0 -229.68 0z" fill="rgba(28, 83, 142, 0.4)" class="triangle-float1"></path><path d="M879.4719221447948 362.08616805900965L862.4586176706563 241.03021652602104 741.4026661376677 258.04352100015956 758.4159706118062 379.0994725331482z" fill="rgba(28, 83, 142, 0.4)" class="triangle-float2"></path><path d="M644.8134227715296 476.7705449794346L558.205392081973 532.8971816714884 637.86217465826 575.2514442631079z" fill="rgba(28, 83, 142, 0.4)" class="triangle-float1"></path><path d="M202.694,515.825C237.875,516.676,273.119,500.403,289.49,469.252C304.989,439.759,293.881,404.906,275.635,377.028C259.322,352.104,232.469,337.513,202.694,336.636C171.13,335.706,138.565,345.67,121.911,372.5C104.44,400.646,106.612,436.364,122.878,465.223C139.456,494.636,168.941,515.009,202.694,515.825" fill="rgba(28, 83, 142, 0.4)" class="triangle-float3"></path><path d="M-16.06 40.76 a167.33 167.33 0 1 0 334.66 0 a167.33 167.33 0 1 0 -334.66 0z" fill="rgba(28, 83, 142, 0.4)" class="triangle-float3"></path><path d="M14.614,405.912C46.431,407.132,75.814,388.887,91.793,361.347C107.832,333.704,108.727,299.35,92.371,271.893C76.374,245.039,45.859,230.884,14.614,231.784C-15.095,232.64,-41.53,250.063,-55.75,276.162C-69.37,301.16,-66.526,330.772,-52.955,355.797C-38.627,382.217,-15.419,404.761,14.614,405.912" fill="rgba(28, 83, 142, 0.4)" class="triangle-float3"></path><path d="M975.412,312.221C1012.461,312.142,1053.376,307.918,1072.694,276.304C1092.601,243.727,1081.669,202.874,1062.352,169.944C1043.31,137.484,1012.993,108.499,975.412,110.468C939.998,112.323,920.945,147.745,902.936,178.295C884.488,209.59,860.116,244.772,877.406,276.722C895.13,309.474,938.172,312.301,975.412,312.221" fill="rgba(28, 83, 142, 0.4)" class="triangle-float2"></path><path d="M396.86,361.582C416.231,360.017,427.115,341.316,436.437,324.264C445.229,308.181,453.1,290.069,444.919,273.667C435.989,255.764,416.861,244.425,396.86,244.921C377.601,245.399,362.725,259.465,352.759,275.952C342.341,293.187,335.182,313.796,344.403,331.7C354.279,350.875,375.361,363.319,396.86,361.582" fill="rgba(28, 83, 142, 0.4)" class="triangle-float3"></path><path d="M519.0899916236298 155.8944139264868L597.4880616977051 20.10497334284321 461.69862111406155-58.29309673123214 383.3005510399862 77.49634385241146z" fill="rgba(28, 83, 142, 0.4)" class="triangle-float3"></path><path d="M843.5467885921255 300.43879121680817L940.0503423152153 285.2483927388302 887.4740951995997 217.95386519108249z" fill="rgba(28, 83, 142, 0.4)" class="triangle-float1"></path><path d="M386.412,656.672C436.964,656.937,486.718,638.374,514.227,595.961C544.313,549.576,554.946,488.676,525.878,441.646C497.888,396.36,439.647,389.752,386.412,389.165C331.728,388.562,270.021,391.841,241.512,438.509C212.211,486.474,229.796,547.814,260.893,594.635C288.568,636.304,336.391,656.41,386.412,656.672" fill="rgba(28, 83, 142, 0.4)" class="triangle-float1"></path></g><defs><mask id="SvgjsMask1179"><rect width="1440" height="560" fill="#ffffff"></rect></mask><style>
                @keyframes float1 {
                    0%{transform: translate(0, 0)}
                    50%{transform: translate(-10px, 0)}
                    100%{transform: translate(0, 0)}
                }

                .triangle-float1 {
                    animation: float1 5s infinite;
                }

                @keyframes float2 {
                    0%{transform: translate(0, 0)}
                    50%{transform: translate(-5px, -5px)}
                    100%{transform: translate(0, 0)}
                }

                .triangle-float2 {
                    animation: float2 4s infinite;
                }

                @keyframes float3 {
                    0%{transform: translate(0, 0)}
                    50%{transform: translate(0, -10px)}
                    100%{transform: translate(0, 0)}
                }

                .triangle-float3 {
                    animation: float3 6s infinite;
                }
            </style></defs></svg>