<svg xmlns="http://www.w3.org/2000/svg" version="1.1" xmlns:xlink="http://www.w3.org/1999/xlink" xmlns:svgjs="http://svgjs.dev/svgjs" width="1440" height="560" preserveAspectRatio="none" viewBox="0 0 1440 560"><g mask="url(&quot;#SvgjsMask1183&quot;)" fill="none"><path d="M843.931,367.993C895.103,368.751,954.337,367.697,980.086,323.468C1005.923,279.088,977.76,226.891,951.912,182.517C926.31,138.565,894.791,90.402,843.931,89.725C792.337,89.038,756.162,134.608,730.854,179.574C706.163,223.444,688.68,276.373,714.585,319.537C739.978,361.849,794.589,367.262,843.931,367.993" fill="rgba(139, 61, 255, 0.43)" class="triangle-float1"></path><path d="M-22.934,349.701C-3.305,349.925,18.072,345.907,27.935,328.935C37.833,311.904,31.018,291.159,20.915,274.249C11.132,257.875,-3.878,242.956,-22.934,243.791C-41.051,244.585,-51.472,262.15,-60.594,277.822C-69.799,293.637,-80.322,311.586,-71.829,327.795C-62.945,344.751,-42.075,349.482,-22.934,349.701" fill="rgba(139, 61, 255, 0.43)" class="triangle-float3"></path><path d="M244.16579270020583 455.54883446852864L286.2463654984889 612.595670163322 401.21262839499923 413.46826167024557z" fill="rgba(139, 61, 255, 0.43)" class="triangle-float3"></path><path d="M490.829,522.234C528.558,522.321,563.6,505.641,585.101,474.638C610.516,437.99,631.837,390.288,608.83,352.082C586.198,314.498,534.628,315.551,490.829,318.087C452.639,320.298,413.996,331.684,394.338,364.501C374.19,398.135,376.85,440.758,397.31,474.203C416.91,506.243,453.269,522.147,490.829,522.234" fill="rgba(139, 61, 255, 0.43)" class="triangle-float2"></path><path d="M1366.802,292.364C1405.547,293.339,1442.966,271.897,1460.2,237.183C1475.977,205.404,1462.805,168.678,1442.733,139.421C1425.538,114.358,1397.19,101.722,1366.802,101.048C1334.975,100.342,1302.156,109.228,1284.801,135.916C1265.942,164.917,1265.145,202.039,1281.205,232.679C1298.512,265.699,1329.533,291.426,1366.802,292.364" fill="rgba(139, 61, 255, 0.43)" class="triangle-float2"></path><path d="M147.911,561.468C185.858,560.78,227.234,553.51,245.913,520.472C264.394,487.784,248.85,448.972,229.811,416.605C211.123,384.834,184.727,355.655,147.911,353.861C108.29,351.93,71.636,374.064,50.908,407.886C29.163,443.369,21.334,488.953,43.557,524.139C64.701,557.617,108.321,562.185,147.911,561.468" fill="rgba(139, 61, 255, 0.43)" class="triangle-float3"></path><path d="M403.341535249957 523.8424038659685L510.6964091059871 562.9163824529663 442.4155138369548 416.4875300099385z" fill="rgba(139, 61, 255, 0.43)" class="triangle-float3"></path><path d="M872.306,288.219C918.954,288.156,955.236,250.178,975.426,208.126C992.986,171.552,984.004,130.915,965.054,95.041C944.381,55.905,916.543,14.37,872.306,12.908C826.386,11.39,789.807,47.941,768.292,88.537C748.238,126.377,748.913,170.425,768.698,208.407C790.284,249.847,825.581,288.283,872.306,288.219" fill="rgba(139, 61, 255, 0.43)" class="triangle-float2"></path><path d="M1347.2378852312754 146.51491966254704L1297.111335467839 74.92678753303578 1214.7924121552903 185.91067824294623z" fill="rgba(139, 61, 255, 0.43)" class="triangle-float1"></path><path d="M1357.679,347.682C1378.167,346.822,1393.097,330.179,1402.675,312.047C1411.527,295.289,1413.247,275.849,1404.507,259.033C1395.015,240.768,1378.255,226.043,1357.679,225.469C1336.22,224.871,1316.789,237.673,1306.099,256.289C1295.454,274.827,1295.118,297.505,1305.625,316.122C1316.314,335.062,1335.95,348.594,1357.679,347.682" fill="rgba(139, 61, 255, 0.43)" class="triangle-float2"></path><path d="M192.9 152.59 a177.47 177.47 0 1 0 354.94 0 a177.47 177.47 0 1 0 -354.94 0z" fill="rgba(139, 61, 255, 0.43)" class="triangle-float3"></path></g><defs><mask id="SvgjsMask1183"><rect width="1440" height="560" fill="#ffffff"></rect></mask><style>
                @keyframes float1 {
                    0%{transform: translate(0, 0)}
                    50%{transform: translate(-10px, 0)}
                    100%{transform: translate(0, 0)}
                }

                .triangle-float1 {
                    animation: float1 5s infinite;
                }

                @keyframes float2 {
                    0%{transform: translate(0, 0)}
                    50%{transform: translate(-5px, -5px)}
                    100%{transform: translate(0, 0)}
                }

                .triangle-float2 {
                    animation: float2 4s infinite;
                }

                @keyframes float3 {
                    0%{transform: translate(0, 0)}
                    50%{transform: translate(0, -10px)}
                    100%{transform: translate(0, 0)}
                }

                .triangle-float3 {
                    animation: float3 6s infinite;
                }
            </style></defs></svg>